<?xml version="1.0" standalone="no"?><!DOCTYPE svg PUBLIC "-//W3C//DTD SVG 1.1//EN" "http://www.w3.org/Graphics/SVG/1.1/DTD/svg11.dtd"><svg t="1772595943796" class="icon" viewBox="0 0 1024 1024" version="1.1" xmlns="http://www.w3.org/2000/svg" p-id="2545" width="48" height="48" xmlns:xlink="http://www.w3.org/1999/xlink"><path d="M512 441.6c270.933333-187.733333-89.6-256 49.066667-401.066667-123.733333 21.333333-102.4 132.266667-81.066667 174.933334 40.533333 76.8 142.933333 76.8 32 226.133333zM381.866667 441.6c221.866667-153.6-74.666667-206.933333 40.533333-326.4-102.4 17.066667-85.333333 121.6-42.666667 162.133333 32 32 91.733333 42.666667 2.133334 164.266667z" fill="#8dbd90" p-id="2546"></path><path d="M554.666667 433.066667c-2.133333 0-6.4-2.133333-8.533334-4.266667-4.266667-4.266667-4.266667-8.533333 0-12.8 72.533333-100.266667 49.066667-123.733333 10.666667-160-14.933333-14.933333-32-32-44.8-55.466667-12.8-25.6-29.866667-83.2-4.266667-130.133333 17.066667-32 49.066667-53.333333 93.866667-59.733333 4.266667 0 8.533333 2.133333 10.666667 6.4 2.133333 4.266667 2.133333 8.533333-2.133334 12.8-55.466667 57.6-25.6 98.133333 10.666667 149.333333 27.733333 38.4 53.333333 76.8 44.8 123.733333-6.4 42.666667-42.666667 83.2-106.666667 128 0 0-2.133333 2.133333-4.266666 2.133334z m21.333333-394.666667c-23.466667 8.533333-38.4 21.333333-49.066667 40.533333-19.2 38.4-4.266667 89.6 4.266667 110.933334 10.666667 21.333333 25.6 34.133333 40.533333 49.066666 32 32 61.866667 61.866667 23.466667 136.533334 29.866667-27.733333 44.8-53.333333 51.2-76.8 6.4-38.4-17.066667-72.533333-42.666667-108.8-29.866667-44.8-66.133333-91.733333-27.733333-151.466667zM422.4 433.066667c-2.133333 0-6.4-2.133333-8.533333-4.266667-4.266667-4.266667-4.266667-8.533333 0-12.8 68.266667-93.866667 44.8-113.066667 14.933333-136.533333-6.4-4.266667-12.8-10.666667-17.066667-14.933334-25.6-25.6-44.8-74.666667-32-117.333333 6.4-23.466667 27.733333-53.333333 81.066667-61.866667 4.266667 0 8.533333 2.133333 10.666667 6.4 2.133333 4.266667 2.133333 8.533333-2.133334 12.8-44.8 44.8-21.333333 78.933333 8.533334 119.466667 21.333333 29.866667 44.8 61.866667 38.4 102.4-6.4 34.133333-34.133333 70.4-89.6 106.666667 0-2.133333-2.133333 0-4.266667 0z m12.8-317.866667c-17.066667 8.533333-27.733333 21.333333-34.133333 38.4-10.666667 34.133333 4.266667 74.666667 25.6 96 4.266667 4.266667 10.666667 8.533333 14.933333 12.8 32 23.466667 53.333333 49.066667 23.466667 108.8 17.066667-17.066667 27.733333-34.133333 29.866666-51.2 6.4-32-12.8-57.6-34.133333-87.466667-23.466667-34.133333-51.2-72.533333-25.6-117.333333zM657.066667 932.266667H354.133333c-2.133333 0-4.266667 0-4.266666-2.133334-166.4-87.466667-194.133333-324.266667-198.4-394.666666V533.333333v-21.333333-4.266667c2.133333-32 27.733333-66.133333 61.866666-66.133333h584.533334c27.733333 0 51.2 25.6 59.733333 51.2 6.4 0 10.666667 2.133333 17.066667 2.133333 17.066667 2.133333 32 8.533333 46.933333 14.933334l2.133333 2.133333c6.4 4.266667 12.8 6.4 19.2 10.666667 6.4 4.266667 10.666667 8.533333 17.066667 12.8l2.133333 2.133333 14.933334 14.933333c4.266667 6.4 8.533333 10.666667 10.666666 19.2 0 2.133333 2.133333 2.133333 2.133334 4.266667 4.266667 6.4 6.4 12.8 8.533333 19.2 23.466667 81.066667-34.133333 168.533333-130.133333 196.266667-8.533333 2.133333-14.933333 4.266667-23.466667 6.4h-6.4c-8.533333 2.133333-14.933333 2.133333-23.466667 2.133333h-27.733333c-4.266667 0-10.666667-2.133333-14.933333-2.133333l-6.4 8.533333c-25.6 38.4-57.6 85.333333-100.266667 123.733333-2.133333 2.133333-4.266667 2.133333-8.533333 2.133334z m-300.8-21.333334h296.533333c38.4-34.133333 68.266667-81.066667 93.866667-117.333333l10.666666-14.933333c2.133333-4.266667 6.4-6.4 10.666667-4.266667 6.4 2.133333 12.8 2.133333 19.2 2.133333h25.6c6.4 0 12.8 0 21.333333-2.133333h4.266667c6.4-2.133333 14.933333-2.133333 21.333333-4.266667 83.2-25.6 134.4-100.266667 115.2-170.666666-2.133333-4.266667-4.266667-10.666667-6.4-17.066667l-2.133333-4.266667c-2.133333-6.4-6.4-10.666667-8.533333-14.933333l-12.8-12.8-2.133334-2.133333c-4.266667-4.266667-10.666667-8.533333-14.933333-10.666667-6.4-4.266667-10.666667-6.4-17.066667-8.533333l2.133334-10.666667-4.266667 10.666667c-12.8-6.4-25.6-10.666667-38.4-12.8-8.533333-2.133333-17.066667-2.133333-23.466667-2.133334-4.266667 0-8.533333-4.266667-10.666666-8.533333-4.266667-19.2-21.333333-42.666667-40.533334-42.666667H213.333333c-23.466667 0-40.533333 27.733333-40.533333 49.066667V531.2l-10.666667 4.266667h10.666667c4.266667 66.133333 29.866667 292.266667 183.466667 375.466666z" fill="#8dbd90" p-id="2547"></path><path d="M34.133333 964.266667s-10.666667 57.6 59.733334 57.6H810.666667c55.466667 0 53.333333-57.6 53.333333-57.6H34.133333z" fill="#8dbd90" p-id="2548"></path><path d="M942.933333 618.666667l-6.4-19.2c0-2.133333-2.133333-2.133333-2.133333-4.266667-2.133333-6.4-6.4-10.666667-10.666667-17.066667-4.266667-4.266667-8.533333-10.666667-12.8-14.933333l-2.133333-2.133333c-4.266667-4.266667-10.666667-8.533333-14.933333-12.8-6.4-4.266667-10.666667-6.4-17.066667-10.666667 0 0-2.133333 0-2.133333-2.133333-12.8-6.4-27.733333-10.666667-42.666667-12.8h-2.133333c-8.533333-2.133333-14.933333-2.133333-23.466667-2.133334-4.266667-23.466667-25.6-51.2-51.2-51.2H170.666667c-27.733333 0-51.2 32-51.2 59.733334v27.733333c4.266667 70.4 29.866667 300.8 192 386.133333h302.933333c46.933333-40.533333 81.066667-96 106.666667-136.533333 6.4 2.133333 12.8 2.133333 21.333333 4.266667H768c6.4 0 14.933333-2.133333 21.333333-2.133334h6.4c6.4-2.133333 14.933333-2.133333 21.333334-4.266666 93.866667-27.733333 147.2-110.933333 125.866666-185.6z m-136.533333 132.266666c-6.4 2.133333-12.8 2.133333-17.066667 4.266667h-25.6c-2.133333 0-6.4 0-8.533333-2.133333 38.4-68.266667 49.066667-132.266667 51.2-174.933334 36.266667 4.266667 66.133333 25.6 74.666667 57.6 12.8 49.066667-21.333333 98.133333-74.666667 115.2z" fill="#8dbd90" p-id="2549"></path><path d="M853.333333 1013.333333H136.533333c-25.6 0-44.8-6.4-57.6-21.333333-17.066667-21.333333-12.8-46.933333-12.8-49.066667 0-4.266667 4.266667-8.533333 10.666667-8.533333h829.866667c6.4 0 10.666667 4.266667 10.666666 10.666667 0 2.133333 2.133333 32-17.066666 51.2-12.8 10.666667-27.733333 17.066667-46.933334 17.066666zM85.333333 955.733333c0 6.4 2.133333 14.933333 8.533334 23.466667 8.533333 8.533333 21.333333 14.933333 40.533333 14.933333H853.333333c12.8 0 23.466667-4.266667 29.866667-10.666666 6.4-8.533333 10.666667-19.2 10.666667-25.6H85.333333zM657.066667 932.266667H354.133333c-2.133333 0-4.266667 0-4.266666-2.133334-166.4-87.466667-194.133333-324.266667-198.4-394.666666V533.333333v-21.333333-4.266667c2.133333-32 27.733333-66.133333 61.866666-66.133333h584.533334c27.733333 0 51.2 25.6 59.733333 51.2 6.4 0 10.666667 2.133333 17.066667 2.133333 17.066667 2.133333 32 8.533333 46.933333 14.933334l2.133333 2.133333c6.4 4.266667 12.8 6.4 19.2 10.666667 6.4 4.266667 10.666667 8.533333 17.066667 12.8l2.133333 2.133333 14.933334 14.933333c4.266667 6.4 8.533333 10.666667 10.666666 19.2 0 2.133333 2.133333 2.133333 2.133334 4.266667 4.266667 6.4 6.4 12.8 8.533333 19.2 23.466667 81.066667-34.133333 168.533333-130.133333 196.266667-8.533333 2.133333-14.933333 4.266667-23.466667 6.4h-6.4c-8.533333 2.133333-14.933333 2.133333-23.466667 2.133333h-27.733333c-4.266667 0-10.666667-2.133333-14.933333-2.133333l-6.4 8.533333c-25.6 38.4-57.6 85.333333-100.266667 123.733333-2.133333 2.133333-4.266667 2.133333-8.533333 2.133334z m-300.8-21.333334h296.533333c38.4-34.133333 68.266667-81.066667 93.866667-117.333333l10.666666-14.933333c2.133333-4.266667 6.4-6.4 10.666667-4.266667 6.4 2.133333 12.8 2.133333 19.2 2.133333h25.6c6.4 0 12.8 0 21.333333-2.133333h4.266667c6.4-2.133333 14.933333-2.133333 21.333333-4.266667 83.2-25.6 134.4-100.266667 115.2-170.666666-2.133333-4.266667-4.266667-10.666667-6.4-17.066667l-2.133333-4.266667c-2.133333-6.4-6.4-10.666667-8.533333-14.933333l-12.8-12.8-2.133334-2.133333c-4.266667-4.266667-10.666667-8.533333-14.933333-10.666667-6.4-4.266667-10.666667-6.4-17.066667-8.533333l2.133334-10.666667-4.266667 10.666667c-12.8-6.4-25.6-10.666667-38.4-12.8-8.533333-2.133333-17.066667-2.133333-23.466667-2.133334-4.266667 0-8.533333-4.266667-10.666666-8.533333-4.266667-19.2-21.333333-42.666667-40.533334-42.666667H213.333333c-23.466667 0-40.533333 27.733333-40.533333 49.066667V531.2l-10.666667 4.266667h10.666667c4.266667 66.133333 29.866667 292.266667 183.466667 375.466666zM810.666667 746.666667h-4.266667-2.133333c-4.266667 0-6.4 0-8.533334-2.133334-4.266667 0-6.4-2.133333-8.533333-6.4s-2.133333-6.4 0-10.666666c40.533333-72.533333 49.066667-136.533333 51.2-168.533334 0-2.133333 2.133333-6.4 4.266667-8.533333 2.133333-2.133333 4.266667-2.133333 8.533333-2.133333 42.666667 4.266667 74.666667 29.866667 85.333333 66.133333 14.933333 51.2-21.333333 108.8-83.2 125.866667-6.4 2.133333-12.8 2.133333-19.2 4.266666h-4.266666c-8.533333 2.133333-14.933333 2.133333-19.2 2.133334z m36.266666-17.066667z m-34.133333-4.266667h14.933333c6.4 0 10.666667-2.133333 17.066667-4.266666 49.066667-14.933333 78.933333-59.733333 68.266667-100.266667-6.4-23.466667-27.733333-42.666667-55.466667-49.066667-4.266667 34.133333-14.933333 89.6-44.8 153.6z" fill="#8dbd90" p-id="2550"></path><path d="M236.8 512h85.333333s-59.733333 106.666667 66.133334 358.4c-162.133333-85.333333-151.466667-358.4-151.466667-358.4z" fill="#8dbd90" p-id="2551"></path></svg>